<?xml version="1.0" standalone="no"?><!DOCTYPE svg PUBLIC "-//W3C//DTD SVG 1.1//EN" "http://www.w3.org/Graphics/SVG/1.1/DTD/svg11.dtd"><svg t="1719756013126" class="icon" viewBox="0 0 1218 1024" version="1.1" xmlns="http://www.w3.org/2000/svg" p-id="23698" xmlns:xlink="http://www.w3.org/1999/xlink" width="237.890625" height="200"><path d="M294.841379 144.772414c194.206897-241.875862 743.282759-123.586207 812.137931 247.172414 54.731034 287.77931-268.358621 769.765517-512 564.965517-220.689655-185.37931-504.937931-31.77931-564.965517-317.793104-51.2-247.172414 60.027586-238.344828 264.827586-494.344827z" fill="#1AA7B8" opacity=".9" p-id="23699"></path><path d="M979.862069 559.668966c121.82069 0 220.689655 98.868966 220.689655 220.689655s-98.868966 220.689655-220.689655 220.689655S759.172414 902.17931 759.172414 780.358621s98.868966-220.689655 220.689655-220.689655z" fill="#5DC9D4" opacity=".53" p-id="23700"></path><path d="M444.910345 349.572414c-14.124138 22.951724-30.013793 47.668966-47.668966 68.855172l-52.965517-33.544827c33.544828-35.310345 60.027586-77.682759 75.917241-123.586207l60.027587 12.35862-17.655173 21.186207h141.24138v52.965518h-70.62069c10.593103 14.124138 28.248276 33.544828 35.310345 49.434482l-54.731035 21.186207c-10.593103-22.951724-19.42069-49.434483-33.544827-70.620689h-35.310345z m-52.965517 141.241379h52.965517v319.558621l-52.965517-1.765517v-317.793104z m68.855172-95.337931c26.482759 22.951724 49.434483 47.668966 72.386207 74.151724l-45.903448 31.779311c-21.186207-26.482759-44.137931-52.965517-70.62069-77.682759l44.137931-28.248276z m54.731034 130.648276h211.862069v211.862069h-211.862069v-211.862069z m52.965518 88.275862h105.931034v-35.310345h-105.931034v35.310345z m105.931034 70.62069v-35.310345h-105.931034v35.310345h105.931034z m70.62069 123.586207l-17.655173-52.965518 45.903449-3.531034c12.358621 0 24.717241 1.765517 24.717241-14.124138v-264.827586h-211.862069v-52.965518h264.827586v335.448276c0 42.372414-19.42069 51.2-65.324138 51.2l-40.606896 1.765518z m-45.903448-457.268966c-10.593103 19.42069-22.951724 38.841379-37.075862 56.496552l-52.965518-33.544828c28.248276-33.544828 49.434483-72.386207 61.793104-114.758621l60.027586 12.358621c-3.531034 10.593103-7.062069 19.42069-8.827586 24.717242l164.193103-1.765518v52.965518h-88.275862c10.593103 14.124138 21.186207 30.013793 28.248276 45.903448l-54.731035 21.186207c-10.593103-21.186207-31.77931-45.903448-44.137931-65.324138l-28.248275 1.765517z m0 0" fill="#FFFFFF" p-id="23701"></path></svg>