<?xml version="1.0" standalone="no"?><!DOCTYPE svg PUBLIC "-//W3C//DTD SVG 1.1//EN" "http://www.w3.org/Graphics/SVG/1.1/DTD/svg11.dtd"><svg t="1719756030450" class="icon" viewBox="0 0 1218 1024" version="1.1" xmlns="http://www.w3.org/2000/svg" p-id="25716" xmlns:xlink="http://www.w3.org/1999/xlink" width="237.890625" height="200"><path d="M294.841379 144.772414c194.206897-241.875862 743.282759-123.586207 812.137931 247.172414 54.731034 287.77931-268.358621 769.765517-512 564.965517-220.689655-185.37931-504.937931-31.77931-564.965517-317.793104-51.2-247.172414 60.027586-238.344828 264.827586-494.344827z" fill="#9E71A2" opacity=".9" p-id="25717"></path><path d="M979.862069 559.668966c121.82069 0 220.689655 98.868966 220.689655 220.689655s-98.868966 220.689655-220.689655 220.689655S759.172414 902.17931 759.172414 780.358621s98.868966-220.689655 220.689655-220.689655z" fill="#9E71A2" opacity=".53" p-id="25718"></path><path d="M256 730.924138h282.482759v-52.965517h-229.517242v-123.586207h211.862069v-52.965517h-211.862069v-105.931035h229.517242v-52.965517l-284.248276-1.765517 1.765517 390.17931z m600.275862-391.944828v284.248276L663.834483 338.97931l-54.731035 1.765518v388.413793h52.965518v-282.482759l194.206896 282.482759h52.965517v-388.413793l-52.965517-1.765518z" fill="#FFFFFF" p-id="25719"></path></svg>