<?xml version="1.0" standalone="no"?><!DOCTYPE svg PUBLIC "-//W3C//DTD SVG 1.1//EN" "http://www.w3.org/Graphics/SVG/1.1/DTD/svg11.dtd"><svg t="1719755931945" class="icon" viewBox="0 0 1024 1024" version="1.1" xmlns="http://www.w3.org/2000/svg" p-id="18035" xmlns:xlink="http://www.w3.org/1999/xlink" width="200" height="200"><path d="M716.8 76.8A230.4 230.4 0 0 1 947.2 307.2v409.6a230.4 230.4 0 0 1-230.4 230.4H307.2A230.4 230.4 0 0 1 76.8 716.8V307.2A230.4 230.4 0 0 1 307.2 76.8h409.6zM716.8 0H307.2a307.2 307.2 0 0 0-307.2 307.2v409.6a307.2 307.2 0 0 0 307.2 307.2h409.6a307.2 307.2 0 0 0 307.2-307.2V307.2a307.2 307.2 0 0 0-307.2-307.2z" p-id="18036"></path><path d="M335.6672 322.048a489.728 489.728 0 0 1-48.384 68.352L232.96 355.328a366.848 366.848 0 0 0 78.08-128l61.44 13.568-9.728 25.6H512v55.808H435.2c11.3152 15.2576 21.1968 31.5392 29.44 48.64l-56.32 21.504c-11.3664-24.32-24.576-47.7696-39.424-70.144l-33.28-0.256z m-61.952 143.36H337.408v332.8H273.7152v-332.8zM352.768 367.616c26.6752 23.5008 51.3536 49.152 73.728 76.8l-47.104 32.512A767.9488 767.9488 0 0 0 307.2 396.544l45.568-28.928z m45.056 122.368h235.264v241.92H397.824V489.984z m60.672 94.464H573.44v-43.008H458.5472v43.008z m114.944 94.72V634.88H458.5472v44.288H573.44z m63.232 114.432l-15.36-57.856 54.016 2.048c12.8 0 19.2-8.96 19.2-25.6v-261.12h-223.744V392.704H757.76v336.896c0 43.264-23.296 65.024-70.144 65.024l-50.944-1.024z m-39.168-471.552a491.3152 491.3152 0 0 1-37.632 59.648L505.856 346.624a338.5344 338.5344 0 0 0 63.232-119.808l60.928 13.568c-4.096 11.52-6.912 20.224-8.704 25.6h169.728v55.808h-88.064c10.1376 13.8752 19.2512 28.5184 27.136 43.776l-56.576 21.504a534.1184 534.1184 0 0 0-37.376-65.28l-38.656 0.256z" p-id="18037"></path></svg>