<?xml version="1.0" standalone="no"?><!DOCTYPE svg PUBLIC "-//W3C//DTD SVG 1.1//EN" "http://www.w3.org/Graphics/SVG/1.1/DTD/svg11.dtd"><svg t="1720593511304" class="icon" viewBox="0 0 1024 1024" version="1.1" xmlns="http://www.w3.org/2000/svg" p-id="17403" xmlns:xlink="http://www.w3.org/1999/xlink" width="200" height="200"><path d="M668.24495 946.5l-6.5-4.5v-166c0-19-17-112-62.5-112-8.5 0-16.5 3-22.5 8.5v-48.5c0-11-9-20-20-20H436.74495c-11 0-20 9-20 20v48.5c-6.5-5.5-14-8.5-22.5-8.5-45.5 0-62.5 93-62.5 112.5v166l-6.5 5c-5 3.5-8.5 9.5-8.5 16v40c0 11 9 20 20 20h25.5c3.5 0.5 7 0.5 10.5 0.5 3.5 0 7 0 10.5-0.5 7-0.5 15-0.5 22 0 14 0.5 29.5 1.5 41-9.5 2-1.5 3.5-3.5 5-6h92c1.5 2 2.5 3.5 4.5 5 11.5 11 27 10 41 9.5 7-0.5 15-0.5 22 0 3.5 0 7 0.5 10.5 0.5 3.5 0 7 0 10.5-0.5h25.5c11 0 20-9 20-20v-40c-0.5-6.5-3.5-12-9-16z m-47-176.5h-44c2-20.5 13.5-53.5 22-64 8.5 10.5 20 43.5 22 64zM536.74495 644V770H456.74495v-126h80zM416.24495 770h-44c2-20.5 13.5-53.5 22-64 8.5 10.5 20 43.5 22 64z m-9 214c-4 0-8.5-0.5-13-0.5s-9 0-13 0.5c-4.5 0.5-9 0.5-13.5 0-1.5-0.5-2.5-0.5-4-0.5H356.74495v-9.5l6.5-4.5c5-4 8.5-10 8.5-16.5V810h45v174h-9.5z m129-16l-78.5 0.5-0.5-0.5V810h79v158z m100.5 15h-7c-1.5 0-2.5 0-4 0.5-4.5 0.5-9 0.5-13.5 0-8-0.5-17.5-0.5-26 0-3 0-6.5 0.5-9.5 0.5V810h45v142c0 6.5 3 12.5 8.5 16.5l6.5 4.5v10zM557.24495 382.5h-120c-11 0-20 9-20 20V570c0 11 9 20 20 20h120c11 0 20-9 20-20V402.5c0-11-9-20-20-20z m-20 167.5h-80V422.5h80V550zM431.74495 349.5c0 11 9 20 20 20h100c11 0 20-9 20-20 11 0 20-9 20-20v-55c0-11-9-20-20-20v-0.5c9-2.5 15-10 15-19.5V200c0-11-9-20-20-20s-20 9-20 20v15c-11 0-20 9-20 20H476.74495v-0.5c0-11-9-20-20-20V205l45-79.5 11.5 20c5.5 9.5 17.5 13 27.5 7.5 9.5-5.5 13-17.5 7.5-27.5L519.24495 75c-0.5-1-1.5-2.5-2.5-3.5V15c0-8.5-6.5-15-15-15s-15 6.5-15 15v57c-1 1-1.5 2-2.5 3.5l-65 115c-1.5 3-2.5 6.5-2.5 10v35c0 9 6 17 15 19.5v0.5c-11 0-20 9-20 20v55c0 10.5 9 19 20 19z m120-40c-11 0-20 9-20 20H471.74495c0-11-9-20-20-20v-15h5c11 0 19.5-8.5 20-19.5h50c0 11 9 19.5 20 19.5h5v15zM611.74495 164c8.5 2.5 16 6.5 23 12 4.5 6 8.5 12.5 10.5 19.5 1.5 4 6 5.5 10 4 2-1 3-2 4-4 2.5-7.5 6.5-14.5 11.5-21 6.5-4.5 13.5-8.5 21-10.5 3.5-1 5.5-5 4.5-9-0.5-2-2.5-3.5-4.5-4.5-8-2.5-15-6-22-11-5-6-9-13-11.5-20.5-1.5-4-6-5.5-10-4-2 1-3 2-4 4-2.5 7.5-6 14-11 20-7 5-14.5 9-22.5 11.5-3.5 1-5.5 5-4.5 8.5 1.5 3 3.5 4.5 5.5 5zM210.74495 631.5c-10-3-19.5-8-27.5-14-6.5-8-11.5-17-14.5-26.5-2-5-7.5-7-12.5-5-2.5 1-4 3-5 5-3 9.5-8 18.5-14 26-5.5 5-17.5 10.5-29 14.5-4.5 1.5-7 6.5-5.5 11.5 1 2.5 3 4.5 5.5 5.5 11.5 4.5 24 10 29.5 15.5 6 7.5 10.5 16 13.5 25 2 5 7.5 7 12.5 5 2.5-1 4-3 5-5 3.5-10 8.5-19 15-27 8-6 17.5-10.5 27-13.5 4.5-2 7-7 5-11.5-1-3-2.5-4.5-5-5.5zM917.74495 686.5c-7-2-13.5-5.5-19-9.5-4.5-5.5-8-11.5-10-18-1.5-3.5-5.5-5-9-3.5-1.5 0.5-2.5 2-3.5 3.5-2 6.5-5.5 12.5-10 18-6 4.5-13 8-20 10-3 1-5 4.5-4 7.5 0.5 2 2 3.5 4 4 7.5 2.5 14.5 6 20.5 10.5 4 5 7.5 11 9.5 17 1.5 3.5 5.5 5 9 3.5 1.5-0.5 3-2 3.5-3.5 2.5-6.5 6-13 10.5-18.5 5.5-4 12-7.5 19-9.5 3-1 5-4.5 3.5-8-1-1.5-2.5-3-4-3.5zM787.74495 871.5c-7-2-13.5-5.5-19-9.5-4.5-5.5-8-11.5-10-18-1.5-3.5-5.5-5-9-3.5-1.5 0.5-2.5 2-3.5 3.5-2 6.5-5.5 12.5-10 18-6 4.5-13 8-20 10-3 1-5 4.5-4 7.5 0.5 2 2 3.5 4 4 7.5 2.5 14.5 6 20.5 10.5 4 5 7.5 11 9.5 17 1.5 3.5 5.5 5 9 3.5 1.5-0.5 3-2 3.5-3.5 2.5-6.5 6-13 10.5-18.5 5.5-4 12-7.5 19-9.5 3-1 4.5-4.5 3.5-8-1-1.5-2.5-2.5-4-3.5zM646.74495 320c0 5.5 4.5 10 10 10s10-4.5 10-10-4.5-10-10-10-10 4.5-10 10zM361.74495 625c11 0 20-9 20-20s-9-20-20-20-20 9-20 20 9 20 20 20zM356.74495 260c8.5 0 15-6.5 15-15s-6.5-15-15-15-15 6.5-15 15 6.5 15 15 15zM299.24495 385c-7 0-12.5 5.5-12.5 12.5s5.5 12.5 12.5 12.5 12.5-5.5 12.5-12.5-5.5-12.5-12.5-12.5zM312.74495 226.5c-7-2-13.5-5.5-19-9.5-4.5-5.5-8-11.5-10-18-1.5-3.5-5.5-5-9-3.5-1.5 0.5-2.5 2-3.5 3.5a47 47 0 0 1-10 17.5c-6 4.5-13 8-20 10-3 1-5 4.5-4 7.5 0.5 2 2 3.5 4 4 7.5 2.5 14.5 6 20.5 10.5 4 5 7.5 11 9.5 17 1.5 3.5 5.5 5 9 3.5 1.5-0.5 3-2 3.5-3.5 2.5-6.5 6-13 10.5-18.5 5.5-4 12-7.5 19-9.5 3-1 5-4.5 3.5-8-1-1-2.5-2.5-4-3zM736.74495 415c0-8.5-6.5-15-15-15s-15 6.5-15 15 6.5 15 15 15 15-6.5 15-15zM696.74495 530c-5.5 0-10 4.5-10 10s4.5 10 10 10 10-4.5 10-10-4.5-10-10-10zM196.74495 710c-8.5 0-15 6.5-15 15s6.5 15 15 15 15-6.5 15-15-6.5-15-15-15zM297.74495 866.5c-7-2-13.5-5.5-19-9.5-4.5-5.5-8-11.5-10-18-1.5-3.5-5.5-5-9-3.5-1.5 0.5-2.5 2-3.5 3.5-2 6.5-5.5 12.5-10 18-6 4.5-13 8-20 10-3 1-5 4.5-4 7.5 0.5 2 2 3.5 4 4 7.5 2.5 14.5 6 20.5 10.5 4 5 7.5 11 9.5 17 1.5 3.5 5.5 5 9 3.5 1.5-0.5 3-2 3.5-3.5 2.5-6.5 6-13 10.5-18.5 5.5-4 12-7.5 19-9.5 3-1 5-4.5 3.5-8-1-1.5-2.5-2.5-4-3.5z" fill="#495FA9" p-id="17404"></path></svg>